<?xml version="1.0" standalone="no"?>
<!DOCTYPE svg PUBLIC "-//W3C//DTD SVG 20010904//EN"
 "http://www.w3.org/TR/2001/REC-SVG-20010904/DTD/svg10.dtd">
<svg version="1.0" xmlns="http://www.w3.org/2000/svg"
 width="260.000000pt" height="260.000000pt" viewBox="0 0 260.000000 260.000000"
 preserveAspectRatio="xMidYMid meet">
<metadata>
Created by potrace 1.11, written by Peter Selinger 2001-2013
</metadata>
<g transform="translate(0.000000,260.000000) scale(0.100000,-0.100000)"
fill="#000000" stroke="none">
<path d="M1970 2289 c-118 -4 -543 -7 -944 -7 l-730 1 -17 -21 c-23 -30 -31
-156 -34 -562 -3 -372 -16 -632 -41 -820 -18 -141 -13 -338 12 -419 7 -25 14
-56 14 -69 0 -13 12 -35 26 -49 l26 -26 787 8 c997 11 1047 11 1216 1 136 -8
141 -8 168 13 58 47 25 126 -57 135 -209 24 -355 27 -801 16 -259 -6 -641 -10
-850 -8 l-380 3 -9 130 c-7 104 -6 155 8 260 24 191 37 464 40 868 2 197 7
362 12 366 5 5 398 11 874 15 937 6 1068 11 1106 47 34 31 32 81 -2 108 -30
24 -33 24 -424 10z"/>
<path d="M652 1999 c-23 -7 -38 -20 -49 -44 -15 -32 -15 -37 2 -75 18 -40 18
-46 1 -168 -24 -176 -32 -402 -16 -477 7 -34 15 -178 19 -328 l6 -269 28 -24
c35 -30 59 -30 94 0 l28 24 3 219 c2 143 -1 251 -10 313 -18 131 -15 378 6
530 10 69 19 126 21 128 1 2 249 4 551 6 302 2 583 7 625 11 l76 7 -5 -420
c-5 -398 -4 -426 16 -514 11 -51 23 -117 27 -147 9 -78 27 -115 64 -130 26
-11 34 -11 56 3 13 9 29 26 36 37 15 28 4 149 -23 254 -20 77 -20 99 -15 542
6 448 5 463 -14 487 -33 42 -77 50 -223 40 -156 -9 -1089 -12 -1196 -3 -41 4
-90 3 -108 -2z"/>
<path d="M1253 1629 c-49 -24 -123 -100 -151 -155 -23 -46 -42 -193 -42 -326
0 -115 24 -174 102 -251 58 -57 165 -107 268 -127 114 -22 210 25 294 143 78
109 98 206 76 363 -14 93 -14 101 -4 174 4 37 1 51 -18 80 -51 76 -187 120
-373 120 -91 0 -117 -4 -152 -21z m250 -148 c90 -34 139 -139 141 -300 1 -92
0 -99 -31 -146 -53 -83 -87 -110 -136 -108 -54 2 -164 47 -200 81 -55 52 -61
73 -54 219 7 146 18 182 66 231 31 31 36 32 111 32 43 0 90 -4 103 -9z"/>
</g>
</svg>
